<?xml version="1.0" standalone="no"?>
<!DOCTYPE svg PUBLIC "-//W3C//DTD SVG 20010904//EN"
 "http://www.w3.org/TR/2001/REC-SVG-20010904/DTD/svg10.dtd">
<svg version="1.0" xmlns="http://www.w3.org/2000/svg"
 width="84.000000pt" height="96.000000pt" viewBox="0 0 84.000000 96.000000"
 preserveAspectRatio="xMidYMid meet">
<metadata>
Created by potrace 1.11, written by Peter Selinger 2001-2013
</metadata>
<g transform="translate(0.000000,96.000000) scale(0.100000,-0.100000)"
fill="#000000" stroke="none">
<path d="M262 935 c-80 -18 -158 -61 -197 -109 -26 -33 -30 -47 -33 -110 -4
-75 8 -117 42 -145 13 -11 16 -41 16 -176 0 -152 1 -164 23 -195 90 -133 463
-142 582 -14 25 27 25 29 25 195 0 154 2 169 19 178 49 27 69 174 34 248 -21
44 -101 97 -180 119 -81 22 -252 27 -331 9z m353 -48 c49 -19 81 -38 108 -66
36 -39 37 -43 37 -112 0 -59 -4 -79 -22 -106 -84 -122 -433 -153 -592 -53 -63
40 -86 81 -86 153 0 97 40 146 155 186 83 28 96 30 220 26 88 -2 124 -8 180
-28z m-397 -403 c28 -13 52 -28 52 -35 0 -8 22 -10 78 -6 148 9 225 26 335 72
18 8 19 1 15 -138 -3 -136 -4 -147 -26 -170 -68 -72 -258 -101 -417 -62 -43
10 -113 52 -125 75 -5 10 -10 82 -10 160 l0 141 23 -7 c12 -4 46 -17 75 -30z"/>
<path d="M324 899 c-50 -14 -66 -39 -62 -100 3 -50 5 -54 28 -54 20 0 26 6 28
28 4 34 33 47 100 47 56 0 95 -18 100 -45 6 -29 17 -38 41 -30 18 5 21 14 21
56 0 58 -19 82 -77 98 -45 13 -136 13 -179 0z m134 -16 c-21 -2 -55 -2 -75 0
-21 2 -4 4 37 4 41 0 58 -2 38 -4z"/>
<path d="M192 418 c-18 -18 -16 -162 3 -178 8 -7 22 -10 30 -6 23 8 18 189 -5
194 -9 1 -21 -3 -28 -10z"/>
<path d="M577 414 c-4 -4 -7 -43 -7 -86 0 -61 3 -80 15 -84 33 -13 46 15 43
95 -3 68 -5 76 -23 79 -12 2 -24 0 -28 -4z"/>
<path d="M457 388 c-25 -13 -25 -195 -1 -205 35 -13 49 11 52 88 4 110 -9 141
-51 117z"/>
<path d="M305 367 c-3 -12 -5 -55 -3 -96 3 -77 17 -101 52 -88 13 5 16 23 16
107 l0 100 -30 0 c-22 0 -31 -5 -35 -23z"/>
</g>
</svg>
